# xmcd CD database file
#
# Track frame offsets:
#	150
#	35640
#	66350
#	96835
#	128015
#	147612
#
# Disc length: 2322 seconds
#
# Revision: 0
# Processed by: cddbd v1.5.2PL0 Copyright (c) Steve Scherf et al.
# Submitted via: CDex 1.70beta3
#
DISCID=59091006
DTITLE=Alice Coltrane - A Monastic Trio
DYEAR=1968
DGENRE=Jazz
TTITLE0=Ohnedaruth
TTITLE1=Gospel Trane
TTITLE2=I Want To See You
TTITLE3=Lovely Sky Boat
TTITLE4=Oceanic Beloved
TTITLE5=Atmic Peace
EXTD=YEAR: 1968
EXTT0=
EXTT1=
EXTT2=
EXTT3=
EXTT4=
EXTT5=
PLAYORDER=
